<svg width="624" height="624" xmlns="http://www.w3.org/2000/svg" xmlns:xlink="http://www.w3.org/1999/xlink" xml:space="preserve" overflow="hidden"><g><path d="M344.507 207.176C349.35 207.159 353.242 203.167 353.242 198.324L353.242 187.856 350.035 187.856C325.159 186.043 309.103 160.227 302.885 148.08 301.63 145.628 298.152 145.56 296.821 147.971 289.911 160.494 272.169 187.856 249.07 187.856L245.862 187.856 245.862 198.324C245.862 203.213 249.826 207.176 254.714 207.176L254.714 207.176C268.899 207.176 282.214 198.002 291.635 182.426 291.659 182.387 291.664 182.389 291.647 182.432 282.429 204.763 266.399 218.447 249.07 218.447L245.862 218.447 245.862 228.915C245.862 233.804 249.826 237.767 254.714 237.767L254.714 237.767C268.899 237.767 282.214 228.593 291.635 213.018 291.659 212.978 291.664 212.981 291.647 213.023 282.429 235.354 266.399 249.038 249.07 249.038L245.862 249.038 245.862 259.507C245.862 264.395 249.826 268.358 254.714 268.358L254.714 268.358C271.556 268.358 287.171 255.429 296.497 234.201 296.504 234.185 296.51 234.186 296.509 234.203L293.837 350.512 293.837 487.142 306.962 487.333 306.962 350.833 305.048 239.327C305.048 239.313 305.053 239.312 305.061 239.325 314.547 257.51 328.979 268.38 344.438 268.358 349.307 268.351 353.242 264.376 353.242 259.507L353.242 249.038 350.035 249.038C332.707 249.038 316.676 235.354 307.459 213.024 307.442 212.981 307.447 212.978 307.471 213.018 316.917 228.636 330.278 237.817 344.507 237.767 349.35 237.75 353.242 233.758 353.242 228.915L353.242 218.447 350.035 218.447C332.707 218.447 316.676 204.763 307.459 182.433 307.442 182.39 307.447 182.387 307.471 182.427 316.917 198.045 330.278 207.226 344.507 207.176Z" fill="#E4E4E4"/><path d="M256.604 389.052 248.694 383.027C246.812 381.593 246.893 378.687 248.903 377.438 251.764 375.661 253.805 372.532 253.841 368.634 253.873 365.255 252.216 362.081 249.529 360.034L241.99 354.292C240.045 352.81 240.273 349.846 242.395 348.629 245.454 346.875 247.662 343.615 247.662 339.519 247.662 336.238 246.13 333.145 243.519 331.156L234.251 323.964C232.421 322.544 232.546 319.725 234.512 318.499 237.356 316.725 240.542 314.005 240.598 310.694 240.656 307.276 238.971 304.062 236.252 301.991L214.614 285.509C212.942 284.235 210.625 284.235 208.954 285.509L187.315 301.991C184.596 304.062 182.911 307.276 182.968 310.694 183.024 313.991 186.184 316.703 189.02 318.477 190.999 319.714 191.16 322.533 189.316 323.963L180.047 331.156C177.437 333.145 175.904 336.238 175.904 339.519 175.904 343.614 178.112 346.874 181.172 348.629 183.293 349.846 183.522 352.81 181.577 354.292L174.039 360.033C171.35 362.081 169.694 365.255 169.725 368.634 169.762 372.533 171.803 375.662 174.665 377.439 176.675 378.687 176.756 381.593 174.873 383.026L166.958 389.056C164.328 391.059 162.687 394.146 162.662 397.452 162.62 403.404 167.233 407.613 172.373 408.033L251.193 408.033C256.342 407.612 260.962 403.391 260.904 397.423 260.872 394.126 259.228 391.05 256.604 389.052Z" fill="#D0D0D0"/><path d="M218.483 471.522 212.128 465.168C213.747 465.043 215.329 464.329 216.518 463.013 218.89 460.388 218.677 456.324 216.176 453.823L209.929 447.576C211.548 447.451 213.131 446.736 214.32 445.42 216.691 442.794 216.477 438.731 213.976 436.23L207.73 429.983C209.349 429.859 210.931 429.144 212.12 427.829 214.492 425.203 214.279 421.14 211.777 418.638L205.531 412.391C207.15 412.266 208.732 411.552 209.921 410.236 212.293 407.611 212.08 403.547 209.578 401.046L203.332 394.799C204.951 394.674 206.534 393.959 207.723 392.643 210.094 390.018 209.88 385.954 207.379 383.453L201.133 377.207C202.752 377.082 204.334 376.368 205.523 375.052 207.895 372.427 207.682 368.363 205.18 365.862L198.934 359.614C200.553 359.49 202.135 358.775 203.324 357.459 205.696 354.834 205.483 350.771 202.981 348.269L196.735 342.022C198.354 341.897 199.937 341.182 201.126 339.866 203.497 337.241 203.283 333.178 200.782 330.676L194.535 324.43C196.154 324.305 197.737 323.591 198.926 322.275 201.298 319.65 201.085 315.586 198.583 313.085L178.9 293.401C176.324 290.825 172.147 290.825 169.57 293.401L149.887 313.085C147.386 315.586 147.172 319.65 149.544 322.275 150.733 323.591 152.315 324.305 153.934 324.43L147.687 330.677C145.186 333.179 144.973 337.242 147.345 339.867 148.534 341.183 150.116 341.897 151.735 342.022L145.489 348.269C142.987 350.771 142.774 354.834 145.146 357.459 146.335 358.775 147.917 359.49 149.536 359.614L143.289 365.862C140.788 368.363 140.575 372.427 142.947 375.051 144.136 376.368 145.718 377.082 147.337 377.207L141.09 383.454C138.589 385.956 138.376 390.019 140.748 392.644 141.937 393.96 143.519 394.674 145.138 394.799L138.891 401.046C136.39 403.547 136.177 407.611 138.549 410.236 139.738 411.552 141.32 412.266 142.94 412.391L136.692 418.638C134.191 421.14 133.978 425.203 136.35 427.829 137.539 429.144 139.121 429.859 140.741 429.983L134.493 436.231C131.992 438.732 131.779 442.796 134.15 445.42 135.34 446.737 136.922 447.451 138.541 447.576L132.294 453.823C129.793 456.324 129.58 460.388 131.951 463.013 133.141 464.329 134.723 465.043 136.342 465.168L129.988 471.523C129.472 472.038 129.163 472.72 128.998 473.482 128.175 477.288 131.201 480.852 135.095 480.852L213.375 480.852C217.269 480.852 220.295 477.288 219.472 473.482 219.307 472.72 218.997 472.038 218.483 471.522Z" fill="#737373"/><path d="M471.901 444.356C483.016 445.122 480.128 447.982 494.234 449.94 505.18 451.459 512.689 450.538 520.304 449.791 522.577 447.905 524.095 445.056 524.062 441.623 524.029 438.326 522.386 435.25 519.762 433.252L511.852 427.227C509.97 425.793 510.051 422.887 512.061 421.638 514.922 419.861 516.963 416.732 516.999 412.834 517.031 409.455 515.374 406.281 512.687 404.234L505.148 398.492C503.203 397.01 503.431 394.046 505.553 392.829 508.612 391.075 510.82 387.815 510.82 383.719 510.82 380.438 509.288 377.345 506.677 375.356L497.409 368.164C495.578 366.744 495.704 363.925 497.669 362.699 500.514 360.926 503.7 358.205 503.756 354.893 503.814 351.477 502.129 348.262 499.41 346.191L477.771 329.709C476.1 328.435 473.783 328.435 472.111 329.709L450.473 346.191C447.754 348.262 446.069 351.476 446.126 354.893 446.181 358.191 449.342 360.902 452.178 362.677 454.157 363.914 454.318 366.733 452.474 368.163L443.204 375.356C440.595 377.344 439.062 380.437 439.062 383.719 439.062 387.814 441.27 391.074 444.33 392.829 446.452 394.046 446.68 397.01 444.735 398.492L437.196 404.233C434.508 406.281 432.852 409.455 432.883 412.835 432.92 416.733 434.961 419.862 437.822 421.639 439.832 422.887 439.913 425.793 438.031 427.226L430.117 433.256C427.486 435.259 425.845 438.346 425.82 441.652 425.789 445.994 428.241 449.401 431.563 451.093 445.035 453.473 452.538 443.024 471.901 444.356Z" fill="#505050"/><path d="M425.933 219.788C417.934 219.788 410.169 221.654 403.172 225.04 403.168 225.042 403.162 225.039 403.162 225.034L403.162 221.088C403.162 207.048 408.74 193.584 418.668 183.656L420.433 181.89 418.595 180.052 416.829 181.818C406.414 192.233 400.562 206.359 400.562 221.088L400.562 226.396C391.231 231.566 383.473 239.524 378.69 249.411L378.383 250.045C376.07 254.825 374.154 259.804 372.635 264.905 372.633 264.911 372.623 264.91 372.623 264.903L371.547 209.009C371.294 195.446 373.744 181.786 378.748 169.063 383.737 156.335 391.275 144.557 400.826 134.628L398.936 132.737C391.087 140.289 384.379 149.066 379.103 158.665 379.1 158.671 379.092 158.669 379.092 158.662L379.092 156.9C379.092 142.171 373.24 128.045 362.825 117.629L361.059 115.863 359.221 117.701 360.986 119.467C370.914 129.395 376.492 142.86 376.492 156.9 376.492 156.9 376.558 163.59 376.492 163.725 375.901 164.945 375.33 166.174 374.787 167.417 369.071 180.449 365.928 194.663 365.642 208.997L364.341 276.153C364.341 276.16 364.331 276.162 364.329 276.155 363.368 273.672 362.311 271.227 361.153 268.835L360.847 268.2C354.542 255.171 343.08 245.484 329.647 241.127L329.647 235.654C329.647 221.614 335.224 208.148 345.152 198.218L346.918 196.451 345.08 194.613 343.31 196.383C332.897 206.798 327.047 220.923 327.047 235.65L327.047 240.352C327.047 240.356 327.043 240.36 327.039 240.358 322.704 239.196 318.193 238.577 313.604 238.577L308.789 238.577 308.789 241.177 313.604 241.177C332.604 241.177 350.23 252.229 358.506 269.331L358.812 269.966C360.957 274.399 362.75 279.009 364.194 283.728L364.021 292.679 360.789 460.033 376.389 460.033 373.158 292.679 372.819 275.094C374.409 266.818 377.062 258.744 380.723 251.178L381.03 250.544C389.306 233.44 406.932 222.388 425.933 222.388L438.77 222.388 438.77 219.788 425.933 219.788Z" fill="#737373"/><path d="M282.107 234.476C286.95 234.459 290.842 230.467 290.842 225.624L290.842 215.156 287.635 215.156C262.759 213.343 246.703 187.527 240.485 175.38 239.23 172.928 235.751 172.86 234.421 175.271 227.51 187.794 209.769 215.156 186.67 215.156L183.462 215.156 183.462 225.624C183.462 230.513 187.425 234.476 192.314 234.476L192.314 234.476C206.499 234.476 219.814 225.302 229.235 209.726 229.259 209.687 229.264 209.689 229.246 209.732 220.029 232.063 203.999 245.747 186.67 245.747L183.462 245.747 183.462 256.215C183.462 261.104 187.426 265.067 192.314 265.067L192.314 265.067C206.499 265.067 219.814 255.893 229.235 240.318 229.259 240.278 229.264 240.281 229.247 240.323 220.029 262.654 203.999 276.338 186.67 276.338L183.462 276.338 183.462 286.807C183.462 291.695 187.426 295.658 192.314 295.658L192.314 295.658C208.59 295.658 223.72 283.583 233.135 263.613 233.143 263.598 233.148 263.6 233.147 263.616L230.524 377.812 230.524 476.933 244.562 477.141 244.562 378.133 242.648 266.628C242.648 266.613 242.653 266.612 242.66 266.625 252.147 284.81 266.579 295.68 282.038 295.658 286.907 295.651 290.842 291.676 290.842 286.807L290.842 276.338 287.635 276.338C270.307 276.338 254.276 262.654 245.059 240.324 245.042 240.281 245.047 240.278 245.071 240.318 254.517 255.936 267.878 265.117 282.107 265.067 286.95 265.05 290.842 261.058 290.842 256.215L290.842 245.747 287.635 245.747C270.307 245.747 254.276 232.063 245.059 209.733 245.042 209.69 245.047 209.687 245.071 209.727 254.517 225.345 267.878 234.526 282.107 234.476Z" fill="#737373"/><path d="M450.612 263.435 450.612 258.533 455.14 258.533C455.152 258.533 455.153 258.528 455.143 258.521L444.762 252.033 434.381 258.521C434.371 258.528 434.372 258.533 434.385 258.533L438.912 258.533 438.912 263.435 431.583 263.435 431.583 270.883 457.583 270.883 457.583 263.435 450.612 263.435ZM440.212 258.533 449.312 258.533 449.312 263.435 440.212 263.435 440.212 258.533Z" fill="#505050"/><path d="M465.634 397.723 435.484 397.723 435.484 275.996 444.582 268.933 460.309 268.933Z" fill="#E4E4E4"/><path d="M444.584 397.723 422.609 397.723 429.109 268.933 444.584 268.933Z" fill="#D0D0D0"/><path d="M460.308 281.283 460.308 279.983 429.108 279.983 429.108 281.283 436.258 281.283 436.258 286.483 429.108 286.483 429.108 287.783 451.858 287.783 451.858 292.983 429.108 292.983 429.108 294.283 439.981 294.283 439.981 299.483 429.108 299.483 429.108 300.783 460.308 300.783 460.308 299.483 441.281 299.483 441.281 294.283 460.308 294.283 460.308 292.983 453.158 292.983 453.158 287.783 460.308 287.783 460.308 286.483 437.558 286.483 437.558 281.283Z" fill="#F2F2F2"/><path d="M449.988 252.937C457.852 247.688 459.088 243.896 459.088 241.237 459.088 218.233 435.222 214.113 438.288 208.737 443.991 198.737 466.011 208.882 474.688 198.337 481.811 189.682 471.466 177.393 478.588 168.437 486.236 158.822 499.404 153.855 509.788 146.337 526.485 134.25 531.352 93.2717 498.088 76.1371 468.282 60.7831 436.362 76.5479 430.488 99.5371 426.465 115.286 431.839 134.113 425.288 151.537 419.068 168.085 397.789 161.847 387.588 178.837 379.505 192.301 380.678 214.367 391.488 224.337 403.203 235.141 416.429 220.966 436.962 231.233 449.962 237.733 447.895 249.567 449.988 252.937Z" fill="#E8E8E8"/><path d="M460.839 490.583 274.408 490.583 274.408 393.083 477.209 393.083 477.209 471.734Z" fill="#0E9DD4"/><path d="M318.608 426.233 338.108 426.233 338.108 445.733 318.608 445.733Z" fill="#737373"/><path d="M318.608 452.233 338.108 452.233 338.108 471.733 318.608 471.733Z" fill="#505050"/><path d="M292.608 426.233 312.108 426.233 312.108 445.733 292.608 445.733Z" fill="#505050"/><path d="M292.608 452.233 312.108 452.233 312.108 471.733 292.608 471.733Z" fill="#505050"/><path d="M343.309 426.233 362.809 426.233 362.809 445.733 343.309 445.733Z" fill="#505050"/><path d="M343.309 452.233 362.809 452.233 362.809 471.733 343.309 471.733Z" fill="#737373"/><path d="M278.595 394.02 220.849 317.12C220.328 316.426 219.288 316.426 218.768 317.12L161.309 393.733 161.309 490.583 278.309 490.583 278.309 398.345 278.595 394.02Z" fill="#D0D0D0"/><path d="M208.861 426.233 228.361 426.233 228.361 445.733 208.861 445.733Z" fill="#FFFFFF"/><path d="M235.408 426.233 254.908 426.233 254.908 445.733 235.408 445.733Z" fill="#E4E4E4"/><path d="M208.861 452.233 228.361 452.233 228.361 471.733 208.861 471.733Z" fill="#F0F0F0"/><path d="M183.408 426.233 202.908 426.233 202.908 445.733 183.408 445.733Z" fill="#F0F0F0"/><path d="M183.408 452.233 202.908 452.233 202.908 471.733 183.408 471.733Z" fill="#E4E4E4"/><path d="M235.408 452.233 254.908 452.233 254.908 471.733 235.408 471.733Z" fill="#FFFFFF"/><path d="M480.778 409.333 272.868 409.333 264.625 386.15 460.839 385.803 480.778 393.733Z" fill="#505050"/><path d="M214.603 315.74 156.109 393.733 156.109 409.333 214.603 332.64C214.606 332.637 214.611 332.637 214.613 332.64L272.858 409.318C272.862 409.323 272.87 409.32 272.87 409.314L272.87 380.126 230.652 324.79 214.614 315.74C214.611 315.737 214.606 315.737 214.603 315.74Z" fill="#737373"/><path d="M421.309 315.733C421.309 315.733 410.962 315.733 410.962 315.733 406.815 314.04 399.667 311.48 390.489 310.149 370.981 307.323 362.524 312.984 342.101 310.149 327.995 308.192 330.882 305.332 319.768 304.567 298.43 303.098 291.496 315.939 275.101 310.149 265.881 306.894 261.942 301.653 252.768 300.844 240.05 299.722 228.825 308.136 221.129 315.733L214.389 315.733C214.382 315.733 214.38 315.737 214.384 315.743L272.876 393.733C272.876 393.733 273.436 393.733 273.436 393.733 279.782 393.733 285.701 396.664 289.801 401.508 291.117 403.062 292.54 404.133 293.962 404.133 298.19 404.133 299.352 398.556 301.762 398.933 303.75 399.244 303.941 402.774 305.662 402.833 307.696 402.902 308.256 398.002 310.862 397.633 313.175 397.306 314.193 400.956 317.362 401.533 320.527 402.109 322.834 399.075 325.162 397.633 333.044 392.749 342.849 405.066 357.662 406.733 372.921 408.45 374.102 396.685 392.762 397.633 402.851 398.146 406.964 401.811 417.462 400.233 418.956 400.009 420.483 399.605 422 399.084 431.917 395.68 442.275 393.733 452.759 393.733L481.095 393.733C481.102 393.733 481.105 393.728 481.1 393.723L421.309 315.733Z" fill="#FFFFFF"/><path d="M308.201 384.624 278.028 345.633 324.252 345.633 308.212 384.623C308.21 384.628 308.205 384.629 308.201 384.624Z" fill="#737373"/><path d="M347.209 384.633 308.215 384.633C308.211 384.633 308.209 384.63 308.209 384.626L308.209 345.633 327.709 319.633 347.209 345.633 347.209 384.633Z" fill="#D0D0D0"/><path d="M318.328 354.733 337.828 354.733 337.828 374.233 318.328 374.233Z" fill="#FFFFFF"/><path d="M401.801 384.624 371.628 345.633 419.412 345.633 401.812 384.623C401.81 384.629 401.805 384.629 401.801 384.624Z" fill="#737373"/><path d="M440.809 384.633 401.814 384.633C401.811 384.633 401.809 384.63 401.809 384.626L401.809 345.633 421.309 319.633 440.809 345.633 440.809 384.633Z" fill="#D0D0D0"/><path d="M412.209 354.733 431.709 354.733 431.709 374.233 412.209 374.233Z" fill="#FFFFFF"/><path d="M288.762 471.733 278.309 471.733C278.309 471.733 273.812 475.243 273.812 482.523 273.812 489.803 278.309 493.812 278.309 493.812 282.09 494.146 285.39 494.863 288.406 495.834 303.038 500.547 310.928 511.254 334.209 513.333 370.829 516.604 382.15 495.1 420.009 497.733 440.469 499.156 457.053 506.82 468.493 513.735L477.201 513.735C477.205 513.735 477.209 513.732 477.209 513.728L477.209 471.733 288.762 471.733Z" fill="#737373"/><path d="M381.008 485.383 381.008 484.083 351.724 484.083 351.724 478.883 366.708 478.883 366.708 477.583 284.862 477.583 284.862 478.883 298.37 478.883 298.37 484.083 292.609 484.083 292.609 485.383 312.759 485.383 312.759 490.583 299.109 490.583 299.109 491.883 336.212 491.883 336.212 497.083 330.362 497.083 330.362 498.383 371.962 498.383 371.962 497.083 351.724 497.083 351.724 491.883 371.962 491.883 371.962 490.583 366.112 490.583 366.112 485.383 381.008 485.383ZM350.424 484.083 337.512 484.083 337.512 478.883 350.424 478.883 350.424 484.083ZM333.646 490.583 333.646 485.383 345.224 485.383 345.224 490.583 333.646 490.583ZM319.259 484.083 319.259 478.883 336.212 478.883 336.212 484.083 319.259 484.083ZM299.67 478.883 317.959 478.883 317.959 484.083 299.67 484.083 299.67 478.883ZM314.059 485.383 332.346 485.383 332.346 490.583 314.059 490.583 314.059 485.383ZM350.424 497.083 337.512 497.083 337.512 491.883 350.424 491.883 350.424 497.083ZM364.812 490.583 346.524 490.583 346.524 485.383 364.812 485.383 364.812 490.583Z" fill="#505050"/><path d="M214.609 508.133C239.967 507.244 242.924 495.858 267.909 493.833 271.771 493.52 275.201 493.538 278.309 493.812L278.309 471.733 148.253 471.733 148.253 494.558C172.837 494.24 185.016 509.172 214.609 508.133Z" fill="#F0F0F0"/><path d="M378.373 472.123C378.38 472.123 378.386 472.123 378.382 472.117 378.197 471.849 371.797 462.619 366.507 462.225 362.35 461.915 361.185 464.733 356.609 466.184 345.078 469.839 337.523 455.856 324.933 458.265 317.688 459.651 318.622 464.582 311.074 466.184 304.071 467.67 291.01 459.837 283.358 458.265 277.239 457.008 257.629 458.264 253.664 472.115 253.663 472.119 253.666 472.123 253.671 472.123L378.373 472.123Z" fill="#FFFFFF"/><path d="M517.406 483.697C517.406 485.855 512.545 487.605 506.548 487.605 500.551 487.605 495.69 485.855 495.69 483.697 495.69 481.538 500.117 482.394 506.114 482.394 512.111 482.394 517.406 481.538 517.406 483.697Z" fill="#E4E4E4"/><path d="M504.478 469.303C504.478 471.463 499.617 473.212 493.62 473.212 487.623 473.212 482.762 471.463 482.762 469.303 482.762 467.145 487.189 468.001 493.186 468.001 499.182 468.001 504.478 467.145 504.478 469.303Z" fill="#E4E4E4"/><path d="M181.549 484.347 178.87 483.208C178.777 483.168 178.685 483.132 178.591 483.097 169.287 479.628 161.378 473.271 155.923 465.185 155.91 465.165 155.914 465.161 155.933 465.176 160.456 468.853 165.55 471.853 171.066 473.985L174.19 475.343C175.013 475.701 175.87 475.87 176.714 475.87 179.21 475.87 181.586 474.387 182.591 471.912 183.902 468.689 182.229 465.012 179.038 463.625L175.997 462.303C175.911 462.266 175.826 462.231 175.739 462.198 166.603 458.694 158.941 452.139 153.951 443.89 153.94 443.871 153.944 443.867 153.961 443.882 158.197 447.447 163.03 450.359 168.334 452.475L171.824 454.018C172.618 454.369 173.446 454.535 174.261 454.535 176.629 454.535 178.885 453.133 179.848 450.786 181.102 447.73 179.531 444.231 176.509 442.895L173.11 441.392C173.038 441.36 172.966 441.33 172.894 441.301 163.77 437.685 156.454 431.009 152.028 422.492 152.019 422.474 152.023 422.471 152.038 422.484 156.006 425.997 160.57 428.878 165.604 430.965L169.467 432.697C170.228 433.039 171.024 433.2 171.808 433.2 174.049 433.2 176.186 431.878 177.105 429.658 178.302 426.765 176.83 423.445 173.974 422.164L170.215 420.478C170.162 420.454 170.108 420.431 170.054 420.408 161.244 416.777 154.3 409.975 150.465 401.399 150.458 401.383 150.463 401.38 150.476 401.391 154.087 404.715 158.263 407.454 162.874 409.454L167.118 411.38C167.844 411.709 168.605 411.865 169.354 411.865 171.47 411.865 173.49 410.62 174.364 408.524 175.503 405.792 174.121 402.65 171.427 401.428L167.311 399.56C167.281 399.547 167.251 399.534 167.222 399.521 158.244 395.639 151.429 388.058 148.518 378.718L148.505 378.67C148.194 377.544 147.417 376.599 146.375 376.074 143.742 374.746 143.601 374.746 143.294 374.746 140.92 374.746 138.819 376.291 138.115 378.564 135.199 387.981 128.327 395.597 119.262 399.459 119.226 399.474 119.19 399.489 119.155 399.506L114.996 401.385C112.365 402.573 110.965 405.596 111.982 408.298 113.096 411.26 116.455 412.625 119.293 411.341L123.568 409.41C128.239 407.413 132.466 404.659 136.117 401.307 136.13 401.296 136.135 401.299 136.128 401.315 132.242 409.926 125.226 416.714 116.323 420.287 116.26 420.313 116.196 420.34 116.134 420.367L112.295 422.071C109.506 423.309 108.005 426.494 109.06 429.357 110.215 432.494 113.755 433.956 116.761 432.622L120.689 430.878C125.823 428.805 130.474 425.912 134.51 422.364 134.525 422.351 134.53 422.354 134.521 422.372 129.988 430.877 122.47 437.646 113.373 441.123 113.288 441.155 113.205 441.189 113.121 441.226L109.596 442.759C106.649 444.04 105.044 447.383 106.133 450.406 107.327 453.72 111.041 455.288 114.221 453.907L117.812 452.345C123.307 450.227 128.354 447.18 132.777 443.419 132.794 443.405 132.799 443.409 132.787 443.427 127.695 451.879 119.822 458.515 110.415 461.963 110.315 461.999 110.217 462.038 110.12 462.079L106.914 463.44C103.805 464.759 102.086 468.258 103.204 471.446 104.428 474.937 108.32 476.618 111.668 475.195L114.932 473.811C120.689 471.682 125.997 468.623 130.69 464.834 130.708 464.819 130.713 464.823 130.699 464.843 125.113 473.053 117.001 479.427 107.45 482.806 107.344 482.843 107.24 482.883 107.136 482.926L104.243 484.117C100.859 485.51 99.0457 489.352 100.376 492.762 101.732 496.235 105.667 497.905 109.098 496.492L112.045 495.279C121.893 491.763 130.54 485.763 137.26 478.054L137.26 496.283 149.194 496.283 149.194 478.232C155.758 485.876 164.2 491.888 173.804 495.497L176.571 496.673C177.419 497.034 178.3 497.204 179.167 497.204 181.796 497.204 184.294 495.635 185.34 493.029 186.701 489.634 184.915 485.777 181.549 484.347Z" fill="#505050"/><path d="M456.48 452.917C460.958 449.746 463.884 444.527 463.884 438.622 463.884 428.951 456.044 421.11 446.373 421.11 436.702 421.11 428.862 428.951 428.862 438.622 428.862 444.687 431.946 450.031 436.631 453.173 419.897 457.729 407.387 472.935 407.068 491.003 406.685 512.669 423.973 530.233 445.68 530.233 467.387 530.233 485.295 512.669 485.677 491.003 486.002 472.583 473.554 457.136 456.48 452.917Z" fill="#FFFFFF"/><path d="M447.727 435.863 474.804 435.863C475.162 435.863 475.454 436.153 475.454 436.513L475.454 436.795C475.454 437.102 475.239 437.367 474.939 437.431L447.641 443.245 447.727 435.863Z" fill="#0E9DD4"/><path d="M444.722 432.944C444.722 433.75 444.069 434.403 443.263 434.403 442.457 434.403 441.804 433.75 441.804 432.944 441.804 432.138 442.457 431.485 443.263 431.485 444.069 431.485 444.722 432.138 444.722 432.944Z" fill="#505050"/><path d="M453.478 432.944C453.478 433.75 452.824 434.403 452.018 434.403 451.212 434.403 450.559 433.75 450.559 432.944 450.559 432.138 451.212 431.485 452.018 431.485 452.824 431.485 453.478 432.138 453.478 432.944Z" fill="#505050"/><path d="M428.972 469.323 416.623 456.974C416.623 456.973 416.621 456.973 416.621 456.973L411.612 451.964 411.612 437.933C411.612 437.573 411.322 437.283 410.962 437.283 410.603 437.283 410.312 437.573 410.312 437.933L410.312 450.664 401.022 441.373C400.768 441.119 400.357 441.119 400.103 441.373 399.849 441.628 399.849 442.038 400.103 442.292L414.593 456.783 408.362 456.783C408.003 456.783 407.712 457.073 407.712 457.433 407.712 457.792 408.003 458.083 408.362 458.083L415.893 458.083 428.053 470.242C428.18 470.369 428.346 470.433 428.512 470.433 428.679 470.433 428.845 470.369 428.972 470.242 429.226 469.988 429.226 469.578 428.972 469.323Z" fill="#2F2F2F"/><path d="M492.862 456.783 486.632 456.783 492.022 451.392C492.276 451.138 492.276 450.728 492.022 450.473 491.769 450.219 491.357 450.219 491.103 450.473L481.812 459.764 481.812 440.533C481.812 440.173 481.522 439.883 481.162 439.883 480.803 439.883 480.512 440.173 480.512 440.533L480.512 461.064 472.253 469.323C471.999 469.578 471.999 469.988 472.253 470.242 472.38 470.369 472.546 470.433 472.712 470.433 472.879 470.433 473.045 470.369 473.172 470.242L481.621 461.793C481.621 461.793 481.623 461.792 481.623 461.792L485.332 458.083 492.862 458.083C493.222 458.083 493.512 457.792 493.512 457.433 493.512 457.073 493.222 456.783 492.862 456.783Z" fill="#2F2F2F"/><path d="M395.362 525.308C395.362 527.621 390.155 529.495 383.732 529.495 377.309 529.495 372.102 527.621 372.102 525.308 372.102 522.996 376.843 523.912 383.267 523.912 389.69 523.912 395.362 522.996 395.362 525.308Z" fill="#E4E4E4"/><path d="M435.902 539.545C435.902 541.767 430.901 543.567 424.732 543.567 418.563 543.567 413.562 541.767 413.562 539.545 413.562 537.325 418.116 538.205 424.285 538.205 430.454 538.205 435.902 537.325 435.902 539.545Z" fill="#E4E4E4"/><path d="M319.962 283.233C319.962 284.669 318.798 285.833 317.362 285.833 315.927 285.833 314.762 284.669 314.762 283.233 314.762 281.797 315.927 280.633 317.362 280.633 318.798 280.633 319.962 281.797 319.962 283.233Z" fill="#E4E4E4"/><path d="M338.162 291.033C338.162 292.469 336.998 293.633 335.562 293.633 334.126 293.633 332.962 292.469 332.962 291.033 332.962 289.597 334.126 288.433 335.562 288.433 336.998 288.433 338.162 289.597 338.162 291.033Z" fill="#E4E4E4"/><path d="M409.662 246.833C409.662 248.269 408.498 249.433 407.062 249.433 405.626 249.433 404.462 248.269 404.462 246.833 404.462 245.397 405.626 244.233 407.062 244.233 408.498 244.233 409.662 245.397 409.662 246.833Z" fill="#E4E4E4"/><path d="M416.162 293.633C416.162 295.069 414.998 296.233 413.562 296.233 412.126 296.233 410.962 295.069 410.962 293.633 410.962 292.197 412.126 291.033 413.562 291.033 414.998 291.033 416.162 292.197 416.162 293.633Z" fill="#E4E4E4"/><path d="M481.162 298.833C481.162 300.269 479.998 301.433 478.562 301.433 477.126 301.433 475.962 300.269 475.962 298.833 475.962 297.397 477.126 296.233 478.562 296.233 479.998 296.233 481.162 297.397 481.162 298.833Z" fill="#E4E4E4"/><path d="M501.962 382.033C501.962 383.469 500.798 384.633 499.362 384.633 497.926 384.633 496.762 383.469 496.762 382.033 496.762 380.597 497.926 379.433 499.362 379.433 500.798 379.433 501.962 380.597 501.962 382.033Z" fill="#FFFFFF"/><path d="M478.562 349.533C478.562 350.969 477.398 352.133 475.962 352.133 474.526 352.133 473.362 350.969 473.362 349.533 473.362 348.097 474.526 346.933 475.962 346.933 477.398 346.933 478.562 348.097 478.562 349.533Z" fill="#FFFFFF"/><path d="M456.462 331.333C456.462 332.769 455.298 333.933 453.862 333.933 452.426 333.933 451.262 332.769 451.262 331.333 451.262 329.897 452.426 328.733 453.862 328.733 455.298 328.733 456.462 329.897 456.462 331.333Z" fill="#FFFFFF"/><path d="M488.962 414.533C488.962 415.969 487.798 417.133 486.362 417.133 484.926 417.133 483.762 415.969 483.762 414.533 483.762 413.097 484.926 411.933 486.362 411.933 487.798 411.933 488.962 413.097 488.962 414.533Z" fill="#FFFFFF"/><path d="M400.562 276.733C400.562 278.169 399.398 279.333 397.962 279.333 396.526 279.333 395.362 278.169 395.362 276.733 395.362 275.297 396.526 274.133 397.962 274.133 399.398 274.133 400.562 275.297 400.562 276.733Z" fill="#E4E4E4"/><path d="M188.662 392.433C188.662 393.869 187.498 395.033 186.062 395.033 184.627 395.033 183.462 393.869 183.462 392.433 183.462 390.997 184.627 389.833 186.062 389.833 187.498 389.833 188.662 390.997 188.662 392.433Z" fill="#FFFFFF"/><path d="M278.362 218.233C278.362 219.669 277.198 220.833 275.762 220.833 274.327 220.833 273.162 219.669 273.162 218.233 273.162 216.797 274.327 215.633 275.762 215.633 277.198 215.633 278.362 216.797 278.362 218.233Z" fill="#FFFFFF"/><path d="M208.162 300.133C208.162 301.569 206.998 302.733 205.562 302.733 204.127 302.733 202.962 301.569 202.962 300.133 202.962 298.697 204.127 297.533 205.562 297.533 206.998 297.533 208.162 298.697 208.162 300.133Z" fill="#FFFFFF"/><path d="M243.262 258.533C243.262 259.969 242.098 261.133 240.662 261.133 239.227 261.133 238.062 259.969 238.062 258.533 238.062 257.097 239.227 255.933 240.662 255.933 242.098 255.933 243.262 257.097 243.262 258.533Z" fill="#FFFFFF"/><path d="M226.362 384.633C226.362 386.069 225.198 387.233 223.762 387.233 222.327 387.233 221.162 386.069 221.162 384.633 221.162 383.197 222.327 382.033 223.762 382.033 225.198 382.033 226.362 383.197 226.362 384.633Z" fill="#FFFFFF"/><path d="M160.062 361.233C160.062 362.669 158.898 363.833 157.462 363.833 156.027 363.833 154.862 362.669 154.862 361.233 154.862 359.797 156.027 358.633 157.462 358.633 158.898 358.633 160.062 359.797 160.062 361.233Z" fill="#FFFFFF"/><path d="M165.262 372.933C165.262 374.369 164.098 375.533 162.662 375.533 161.227 375.533 160.062 374.369 160.062 372.933 160.062 371.497 161.227 370.333 162.662 370.333 164.098 370.333 165.262 371.497 165.262 372.933Z" fill="#FFFFFF"/><path d="M173.062 301.433C173.062 302.869 171.898 304.033 170.462 304.033 169.027 304.033 167.862 302.869 167.862 301.433 167.862 299.997 169.027 298.833 170.462 298.833 171.898 298.833 173.062 299.997 173.062 301.433Z" fill="#FFFFFF"/><path d="M241.962 292.333C241.962 293.769 240.798 294.933 239.362 294.933 237.927 294.933 236.762 293.769 236.762 292.333 236.762 290.897 237.927 289.733 239.362 289.733 240.798 289.733 241.962 290.897 241.962 292.333Z" fill="#FFFFFF"/><path d="M232.862 202.633C232.862 204.069 231.698 205.233 230.262 205.233 228.827 205.233 227.662 204.069 227.662 202.633 227.662 201.197 228.827 200.033 230.262 200.033 231.698 200.033 232.862 201.197 232.862 202.633Z" fill="#FFFFFF"/><path d="M200.362 411.933C200.362 413.369 199.198 414.533 197.762 414.533 196.327 414.533 195.162 413.369 195.162 411.933 195.162 410.497 196.327 409.333 197.762 409.333 199.198 409.333 200.362 410.497 200.362 411.933Z" fill="#FFFFFF"/><path d="M395.362 427.533C395.362 428.969 394.198 430.133 392.762 430.133 391.326 430.133 390.162 428.969 390.162 427.533 390.162 426.097 391.326 424.933 392.762 424.933 394.198 424.933 395.362 426.097 395.362 427.533Z" fill="#FFFFFF"/><path d="M385.499 445.205C386.51 446.216 386.504 447.862 385.486 448.88 384.467 449.898 382.822 449.903 381.811 448.892 380.8 447.881 380.806 446.236 381.825 445.218 382.843 444.199 384.488 444.194 385.499 445.205Z" fill="#FFFFFF"/><path d="M307.499 417.903C308.51 418.914 308.504 420.559 307.485 421.578 306.467 422.596 304.822 422.601 303.811 421.59 302.8 420.579 302.806 418.933 303.824 417.915 304.842 416.897 306.488 416.892 307.499 417.903Z" fill="#FFFFFF"/><path d="M267.962 435.333C267.962 436.769 266.798 437.933 265.362 437.933 263.927 437.933 262.762 436.769 262.762 435.333 262.762 433.897 263.927 432.733 265.362 432.733 266.798 432.733 267.962 433.897 267.962 435.333Z" fill="#FFFFFF"/><path d="M213.362 357.333C213.362 358.769 212.198 359.933 210.762 359.933 209.327 359.933 208.162 358.769 208.162 357.333 208.162 355.897 209.327 354.733 210.762 354.733 212.198 354.733 213.362 355.897 213.362 357.333Z" fill="#FFFFFF"/><path d="M332.962 254.633C332.962 256.069 331.798 257.233 330.362 257.233 328.927 257.233 327.762 256.069 327.762 254.633 327.762 253.197 328.927 252.033 330.362 252.033 331.798 252.033 332.962 253.197 332.962 254.633Z" fill="#FFFFFF"/><path d="M136.662 436.633C136.662 438.069 135.498 439.233 134.062 439.233 132.627 439.233 131.462 438.069 131.462 436.633 131.462 435.197 132.627 434.033 134.062 434.033 135.498 434.033 136.662 435.197 136.662 436.633Z" fill="#FFFFFF"/><path d="M142.467 408.729C144.587 411.512 141.44 414.658 138.657 412.537 136.538 409.755 139.684 406.609 142.467 408.729Z" fill="#FFFFFF"/><path d="M170.462 482.133C170.462 483.569 169.298 484.733 167.862 484.733 166.427 484.733 165.262 483.569 165.262 482.133 165.262 480.697 166.427 479.533 167.862 479.533 169.298 479.533 170.462 480.697 170.462 482.133Z" fill="#FFFFFF"/><path d="M286.162 327.433C286.162 328.869 284.998 330.033 283.562 330.033 282.127 330.033 280.962 328.869 280.962 327.433 280.962 325.997 282.127 324.833 283.562 324.833 284.998 324.833 286.162 325.997 286.162 327.433Z" fill="#F0F0F0"/><path d="M270.562 370.333C270.562 371.769 269.398 372.933 267.962 372.933 266.527 372.933 265.362 371.769 265.362 370.333 265.362 368.897 266.527 367.733 267.962 367.733 269.398 367.733 270.562 368.897 270.562 370.333Z" fill="#F0F0F0"/><path d="M399.262 486.033C399.262 487.469 398.098 488.633 396.662 488.633 395.227 488.633 394.062 487.469 394.062 486.033 394.062 484.597 395.227 483.433 396.662 483.433 398.098 483.433 399.262 484.597 399.262 486.033Z" fill="#FFFFFF"/><path d="M380.412 220.833C380.412 222.269 379.248 223.433 377.812 223.433 376.376 223.433 375.212 222.269 375.212 220.833 375.212 219.397 376.376 218.233 377.812 218.233 379.248 218.233 380.412 219.397 380.412 220.833Z" fill="#FFFFFF"/></g></svg>